<?xml version="1.0" encoding="UTF-8" standalone="no"?>
<!-- Created with Inkscape (http://www.inkscape.org/) -->

<svg
   width="100"
   height="100"
   viewBox="0 0 26.458333 26.458333"
   version="1.1"
   id="svg1"
   inkscape:version="1.4 (86a8ad7, 2024-10-11)"
   sodipodi:docname="Logo.svg"
   xmlns:inkscape="http://www.inkscape.org/namespaces/inkscape"
   xmlns:sodipodi="http://sodipodi.sourceforge.net/DTD/sodipodi-0.dtd"
   xmlns:xlink="http://www.w3.org/1999/xlink"
   xmlns="http://www.w3.org/2000/svg"
   xmlns:svg="http://www.w3.org/2000/svg">
  <sodipodi:namedview
     id="namedview1"
     pagecolor="#ffffff"
     bordercolor="#111111"
     borderopacity="1"
     inkscape:showpageshadow="0"
     inkscape:pageopacity="0"
     inkscape:pagecheckerboard="1"
     inkscape:deskcolor="#d1d1d1"
     inkscape:document-units="px"
     inkscape:zoom="8.3150519"
     inkscape:cx="47.684609"
     inkscape:cy="54.780175"
     inkscape:window-width="1680"
     inkscape:window-height="987"
     inkscape:window-x="-8"
     inkscape:window-y="-8"
     inkscape:window-maximized="1"
     inkscape:current-layer="layer1" />
  <defs
     id="defs1">
    <linearGradient
       id="linearGradient7"
       inkscape:collect="always">
      <stop
         style="stop-color:#4682b4;stop-opacity:1;"
         offset="0"
         id="stop6" />
      <stop
         style="stop-color:#e1f0ff;stop-opacity:1;"
         offset="1"
         id="stop7" />
    </linearGradient>
    <linearGradient
       inkscape:collect="always"
       xlink:href="#linearGradient7"
       id="linearGradient5"
       gradientUnits="userSpaceOnUse"
       x1="55.080002"
       y1="146.86293"
       x2="55.080002"
       y2="84.257072" />
  </defs>
  <g
     inkscape:label="Lager 1"
     inkscape:groupmode="layer"
     id="layer1">
    <path
       sodipodi:type="star"
       style="fill:#4682b4;fill-opacity:1;stroke-width:2.72899;stroke-linecap:round;stroke-linejoin:round;stroke-miterlimit:5.9"
       id="path3"
       inkscape:flatsided="true"
       sodipodi:sides="6"
       sodipodi:cx="55.080002"
       sodipodi:cy="115.56"
       sodipodi:r1="36.145508"
       sodipodi:r2="31.302925"
       sodipodi:arg1="-0.52359878"
       sodipodi:arg2="0"
       inkscape:rounded="0"
       inkscape:randomized="0"
       d="m 86.38293,97.487244 0,36.145506 -31.302928,18.07276 -31.302928,-18.07276 0,-36.145506 31.302928,-18.072754 z"
       transform="matrix(0.3659975,0,0,0.3659975,-6.9299765,-29.065504)" />
    <path
       sodipodi:type="star"
       style="fill:url(#linearGradient5);fill-opacity:1;stroke-width:2.72899;stroke-linecap:round;stroke-linejoin:round;stroke-miterlimit:5.9"
       id="path3-2"
       inkscape:flatsided="true"
       sodipodi:sides="6"
       sodipodi:cx="55.080002"
       sodipodi:cy="115.56"
       sodipodi:r1="36.145508"
       sodipodi:r2="31.302925"
       sodipodi:arg1="-0.52359878"
       sodipodi:arg2="0"
       inkscape:rounded="0"
       inkscape:randomized="0"
       d="m 86.38293,97.487244 0,36.145506 -31.302928,18.07276 -31.302928,-18.07276 0,-36.145506 31.302928,-18.072754 z"
       transform="matrix(0.32504509,0,0,0.32504509,-4.6743175,-24.333043)" />
    <path
       style="font-size:17.0264px;line-height:0.95;font-family:Anurati;-inkscape-font-specification:Anurati;fill:#4682b4;stroke-width:4.11599;stroke-linecap:round;stroke-linejoin:round;stroke-miterlimit:5.9"
       d="m 16.623236,13.518615 c 0.544845,-0.766188 0.800241,-1.617508 0.800241,-2.570986 0,-1.2429273 -0.442686,-2.2985641 -1.328059,-3.2009633 C 15.210045,6.861293 14.137382,6.4186066 12.894455,6.4186066 H 6.9181886 l 1.1748215,2.0261415 0.255396,0.255396 h 4.5460489 c 0.61295,0 1.140769,0.2213432 1.583455,0.6640296 0.459713,0.4426864 0.681056,0.9705043 0.681056,1.5834553 0,0.629977 -0.221343,1.174821 -0.681056,1.617508 -0.442686,0.442686 -0.970505,0.664029 -1.583455,0.664029 l -2.026142,-0.01703 3.950125,6.827586 h 2.605039 L 14.631148,15.15315 c 0.80024,-0.323502 1.46427,-0.868347 1.992088,-1.634535 z"
       id="text7"
       aria-label="R" />
    <rect
       style="fill:#4682b4;fill-opacity:1;stroke-width:5.1157;stroke-linecap:round;stroke-linejoin:round;stroke-miterlimit:5.9"
       id="rect7"
       width="2.6410437"
       height="15.735023"
       x="-0.50832117"
       y="7.4147305"
       transform="matrix(1,0,0.50063918,0.86565606,0,0)"
       inkscape:transform-center-x="3.9122935"
       inkscape:transform-center-y="-6.7776189" />
  </g>
</svg>
